<?xml version="1.0" encoding="utf-8"?>
<!-- Generator: Adobe Illustrator 16.0.0, SVG Export Plug-In . SVG Version: 6.00 Build 0)  -->
<!DOCTYPE svg PUBLIC "-//W3C//DTD SVG 1.1//EN" "http://www.w3.org/Graphics/SVG/1.1/DTD/svg11.dtd">
<svg version="1.1" id="Capa_1" xmlns="http://www.w3.org/2000/svg" xmlns:xlink="http://www.w3.org/1999/xlink" x="0px" y="0px"
	 width="35px" height="95px" viewBox="33.5 150.5 35 95" enable-background="new 33.5 150.5 35 95" xml:space="preserve">
<path d="M50,210c-5.523,0-10-4.477-10-10c0-5.523,4.477-10,10-10c5.523,0,10,4.477,10,10C60,205.523,55.523,210,50,210z M50,180
	c-5.523,0-10-4.477-10-10s4.477-10,10-10c5.523,0,10,4.477,10,10S55.523,180,50,180z M50,240c-5.523,0-10-4.477-10-10
	s4.477-10,10-10c5.523,0,10,4.477,10,10S55.523,240,50,240z"/>
</svg>
